<svg xmlns="http://www.w3.org/2000/svg" xml:space="preserve" viewBox="11.6 15.4 176.8 171.4"><style>path{fill:#000}@media (prefers-color-scheme:dark){path{fill:#fff}}</style><linearGradient id="SVGID_right_" x1="-1073.2" x2="-1073.2" y1="126.8" y2="0" gradientTransform="translate(1196.6 15.4)" gradientUnits="userSpaceOnUse"><stop offset="0" stop-color="#1b3967"></stop><stop offset=".5" stop-color="#13b5ea"></stop><stop offset="1" stop-color="#002b5c"></stop></linearGradient><linearGradient id="SVGID_left_" x1="-1073.2" x2="-1073.2" y1="126.8" y2="0" gradientTransform="matrix(-1 0 0 1 -994.8 15.4)" gradientUnits="userSpaceOnUse"><stop offset="0" stop-color="#1b3967"></stop><stop offset=".5" stop-color="#13b5ea"></stop><stop offset="1" stop-color="#002b5c"></stop></linearGradient><path d="M151.8 29.6c0 1.3-1.8 1-1.8 2.3 0 38.5-46.5 97.3-91.7 108.7v1.6c60-5.5 128.6-67.8 130.1-126.8l-36.6 14.2z" style="fill:url(#SVGID_right_)"></path><path d="M133.7 34.3v4c0 38.5-30.6 90.5-75.7 101.8v1.7c59-2.8 105.8-63 105.8-109.2a68 68 0 0 0-.4-7.1l-29.7 8.8z" style="fill:#e96d1f"></path><path d="m163.7 25-7.6 2.7v3.2c0 41.2-37.2 98.2-87.2 107.1-3.3 1.1-7.6 2.1-11 3v1.6C123.2 137 169 70.7 163.7 24.9Z" style="fill:#d9541e"></path><path d="M50 29.6c0 1.3 1.8 1 1.8 2.2 0 38.6 46.6 97.4 91.7 108.8v1.6c-60-5.5-128.6-67.8-130-126.8L50 29.6z" style="fill:url(#SVGID_left_)"></path><path d="M68.1 34.3v4c0 38.5 30.6 90.5 75.7 101.8v1.7C84.8 139 38 78.8 38 32.6c0-2.4.2-4.8.4-7.1l29.7 8.8z" style="fill:#a0ce67"></path><path d="m38.1 25 7.6 2.7v3.2c0 41.2 37.2 98.2 87.2 107.1 3.3 1.1 7.6 2 11 3v1.6C78.6 137 32.8 70.7 38 24.9Z" style="fill:#439639"></path><path d="m26 172-13.4-14.6h11.6l9.2 10.3 9.1-10.3h11.6l-13.3 14.7 14.4 14.7H43l-9.7-10.7-9.7 10.7h-12L26 172.1z"></path><path d="M58.5 157.4h13.8l10.2 19 10.2-19h13.8v29.4h-8.7v-21h-.1l-11.8 21h-6.7l-11.8-21h-.1v21h-8.8v-29.4z"></path><path d="M112.7 157.4h24.5c8.6 0 10.6 4.3 10.6 10v2.6c0 4.4-1.9 9.4-8.2 9.4h-18v7.4h-9v-29.4zm9 14.7h14c2 0 2.9-1.4 2.9-3.1v-1.1c0-2-1-3.2-3.7-3.2h-13.2v7.4z"></path><path d="M152.7 157.4h24.6c8.5 0 10.6 4.3 10.6 10v2.6c0 4.4-2 9.4-8.3 9.4h-17.9v7.4h-9v-29.4zm9 14.7h14c2.1 0 3-1.4 3-3.1v-1.1c0-2-1-3.2-3.7-3.2h-13.3v7.4z"></path></svg>
