<svg xmlns="http://www.w3.org/2000/svg" xml:space="preserve" viewBox="13.5 37.4 174.9 127.2"><linearGradient id="SVGID_right_" x1="-1073.2" x2="-1073.2" y1="126.8" y2="0" gradientTransform="translate(1196.6 37.4)" gradientUnits="userSpaceOnUse"><stop offset="0" stop-color="#1b3967"></stop><stop offset=".5" stop-color="#13b5ea"></stop><stop offset="1" stop-color="#002b5c"></stop></linearGradient><linearGradient id="SVGID_left_" x1="-1073.2" x2="-1073.2" y1="126.8" y2="0" gradientTransform="matrix(-1 0 0 1 -994.8 37.4)" gradientUnits="userSpaceOnUse"><stop offset="0" stop-color="#1b3967"></stop><stop offset=".5" stop-color="#13b5ea"></stop><stop offset="1" stop-color="#002b5c"></stop></linearGradient><path d="M151.8 51.6c0 1.3-1.8 1-1.8 2.3 0 38.5-46.5 97.3-91.7 108.7v1.6c60-5.5 128.6-67.8 130.1-126.8l-36.6 14.2z" style="fill:url(#SVGID_right_)"></path><path d="M133.7 56.3v4c0 38.5-30.6 90.5-75.7 101.8v1.7c59-2.8 105.8-63 105.8-109.2a68 68 0 0 0-.4-7.1l-29.7 8.8z" style="fill:#e96d1f"></path><path d="m163.7 47-7.6 2.7v3.2c0 41.2-37.2 98.2-87.2 107.1-3.3 1.1-7.6 2.1-11 3v1.6C123.2 159 169 92.7 163.7 46.9Z" style="fill:#d9541e"></path><path d="M50 51.6c0 1.3 1.8 1 1.8 2.2 0 38.6 46.6 97.4 91.7 108.8v1.6c-60-5.5-128.6-67.8-130-126.8L50 51.6z" style="fill:url(#SVGID_left_)"></path><path d="M68.1 56.3v4c0 38.5 30.6 90.5 75.7 101.8v1.7C84.8 161 38 100.8 38 54.6c0-2.4.2-4.8.4-7.1l29.7 8.8z" style="fill:#a0ce67"></path><path d="m38.1 47 7.6 2.7v3.2c0 41.2 37.2 98.2 87.2 107.1 3.3 1.1 7.6 2 11 3v1.6C78.6 159 32.8 92.7 38 46.9Z" style="fill:#439639"></path></svg>
